<?xml version="1.0" encoding="UTF-8" standalone="no"?>
<!DOCTYPE svg PUBLIC "-//W3C//DTD SVG 1.1//EN" "http://www.w3.org/Graphics/SVG/1.1/DTD/svg11.dtd">
<svg width="100%" height="100%" viewBox="0 0 1080 1080" version="1.1"
    xmlns="http://www.w3.org/2000/svg" xmlns:xlink="http://www.w3.org/1999/xlink"
    xml:space="preserve" xmlns:serif="http://www.serif.com/"
    style="fill-rule:evenodd;clip-rule:evenodd;stroke-linejoin:round;stroke-miterlimit:2;">
    <rect id="Artboard1" x="0" y="0" width="1080" height="1080" style="fill:none;"/>
    <g id="Artboard11" serif:id="Artboard1">
        <g transform="matrix(1.22381,0,0,1.22381,-120.855,-120.855)">
            <g transform="matrix(0.980097,0,0,0.980097,7.00824,7.00824)">
                <path d="M241.102,534C222.307,534 204.282,526.534 190.992,513.244C177.702,499.954 170.236,481.929 170.236,463.134L170.236,241.102C170.236,222.307 177.702,204.282 190.992,190.992C204.282,177.702 222.307,170.236 241.102,170.236L463.134,170.236C481.929,170.236 499.954,177.702 513.244,190.992C526.534,204.282 534,222.307 534,241.102L534,534L241.102,534Z" style="fill:rgb(13,19,23);"/>
            </g>
            <g transform="matrix(0.980097,0,0,0.980097,14.4871,7.00824)">
                <path d="M546,241.102C546,222.307 553.466,204.282 566.756,190.992C580.046,177.702 598.071,170.236 616.866,170.236L838.898,170.236C857.693,170.236 875.718,177.702 889.008,190.992C902.298,204.282 909.764,222.307 909.764,241.102L909.764,463.134C909.764,481.929 902.298,499.954 889.008,513.244C875.718,526.534 857.693,534 838.898,534L546,534L546,241.102Z" style="fill:rgb(13,19,23);"/>
            </g>
            <g transform="matrix(0.980097,0,0,0.980097,14.4871,14.4871)">
                <path d="M838.898,546C857.693,546 875.718,553.466 889.008,566.756C902.298,580.046 909.764,598.071 909.764,616.866L909.764,838.898C909.764,857.693 902.298,875.718 889.008,889.008C875.718,902.298 857.693,909.764 838.898,909.764L616.866,909.764C598.071,909.764 580.046,902.298 566.756,889.008C553.466,875.718 546,857.693 546,838.898L546,546L838.898,546ZM838.898,587.686L587.686,587.686L587.686,838.898C587.686,846.637 590.76,854.059 596.233,859.532C601.705,865.004 609.127,868.078 616.866,868.078L838.898,868.078C846.637,868.078 854.059,865.004 859.532,859.532C865.004,854.059 868.078,846.637 868.078,838.898L868.078,616.866C868.078,609.127 865.004,601.705 859.532,596.233C854.059,590.76 846.637,587.686 838.898,587.686Z" style="fill:rgb(69,74,222);"/>
            </g>
            <g transform="matrix(0.980097,0,0,0.980097,7.00824,14.4871)">
                <path d="M534,838.898C534,857.693 526.534,875.718 513.244,889.008C499.954,902.298 481.929,909.764 463.134,909.764L241.102,909.764C222.307,909.764 204.282,902.298 190.992,889.008C177.702,875.718 170.236,857.693 170.236,838.898L170.236,616.866C170.236,598.071 177.702,580.046 190.992,566.756C204.282,553.466 222.307,546 241.102,546L534,546L534,838.898Z" style="fill:rgb(13,19,23);"/>
            </g>
        </g>
    </g>
</svg>